<svg width="20" height="22" viewBox="0 0 20 22" xmlns="http://www.w3.org/2000/svg">
<path d="M14 0C14.5523 0 15 0.447715 15 1V1.55469C16.4774 1.71904 17.6789 2.26182 18.5449 3.19434C19.5865 4.31598 20 5.84671 20 7.5V16C20 17.6533 19.5865 19.184 18.5449 20.3057C17.4909 21.4405 15.9404 22 14 22H6C4.05957 22 2.50906 21.4405 1.45508 20.3057C0.41355 19.184 0 17.6533 0 16V7.5C0 5.84671 0.41355 4.31598 1.45508 3.19434C2.32114 2.26182 3.52258 1.71904 5 1.55469V1C5 0.447715 5.44772 0 6 0C6.55228 0 7 0.447715 7 1V1.5H13V1C13 0.447715 13.4477 0 14 0ZM2 16C2 17.3465 2.33662 18.316 2.91992 18.9443C3.49094 19.5593 4.4406 20 6 20H14C15.5594 20 16.5091 19.5593 17.0801 18.9443C17.6634 18.316 18 17.3465 18 16V9.08984H2V16ZM6.30371 14.7002C6.8558 14.7004 7.30371 15.148 7.30371 15.7002C7.30361 16.2523 6.85574 16.7 6.30371 16.7002H6.29395C5.74189 16.7 5.29404 16.2523 5.29395 15.7002C5.29395 15.148 5.74183 14.7004 6.29395 14.7002H6.30371ZM10.0049 14.7002C10.557 14.7004 11.0049 15.148 11.0049 15.7002C11.0048 16.2523 10.5569 16.7 10.0049 16.7002H9.99512C9.44306 16.7 8.99522 16.2523 8.99512 15.7002C8.99512 15.148 9.443 14.7004 9.99512 14.7002H10.0049ZM13.7041 14.7002C14.2562 14.7004 14.7041 15.148 14.7041 15.7002C14.704 16.2523 14.2561 16.7 13.7041 16.7002H13.6943C13.1423 16.7 12.6944 16.2523 12.6943 15.7002C12.6943 15.148 13.1422 14.7004 13.6943 14.7002H13.7041ZM6.30371 11.7002C6.8558 11.7004 7.30371 12.148 7.30371 12.7002C7.30361 13.2523 6.85574 13.7 6.30371 13.7002H6.29395C5.74189 13.7 5.29404 13.2523 5.29395 12.7002C5.29395 12.148 5.74183 11.7004 6.29395 11.7002H6.30371ZM10.0049 11.7002C10.557 11.7004 11.0049 12.148 11.0049 12.7002C11.0048 13.2523 10.5569 13.7 10.0049 13.7002H9.99512C9.44306 13.7 8.99522 13.2523 8.99512 12.7002C8.99512 12.148 9.443 11.7004 9.99512 11.7002H10.0049ZM13.7041 11.7002C14.2562 11.7004 14.7041 12.148 14.7041 12.7002C14.704 13.2523 14.2561 13.7 13.7041 13.7002H13.6943C13.1423 13.7 12.6944 13.2523 12.6943 12.7002C12.6943 12.148 13.1422 11.7004 13.6943 11.7002H13.7041ZM7 4C7 4.55228 6.55228 5 6 5C5.44772 5 5 4.55228 5 4V3.56934C4.01577 3.7164 3.35695 4.08502 2.91992 4.55566C2.39763 5.1183 2.07389 5.95447 2.01172 7.08984H17.9883C17.9261 5.95447 17.6024 5.1183 17.0801 4.55566C16.6431 4.08502 15.9842 3.7164 15 3.56934V4C15 4.55228 14.5523 5 14 5C13.4477 5 13 4.55228 13 4V3.5H7V4Z"/>
</svg>
