<svg width="26" height="26" viewBox="0 0 26 26" xmlns="http://www.w3.org/2000/svg">
<path d="M20.8721 0C23.5112 0.000121047 25.6668 2.15584 25.667 4.79492V18.0488C25.6669 19.1527 25.2607 20.223 24.2998 20.7881C23.3402 21.3524 22.2075 21.1892 21.2422 20.6572L21.2363 20.6543L18.667 19.2197V22.5752C18.6669 23.6791 18.2607 24.7493 17.2998 25.3145C16.3401 25.8788 15.2075 25.7156 14.2422 25.1836L14.2373 25.1807L9.6582 22.6289C9.62459 22.6113 9.50968 22.5723 9.33398 22.5723C9.15556 22.5723 9.03963 22.6127 9.00781 22.6299L4.42969 25.1807L4.4248 25.1836C3.45958 25.7155 2.3268 25.8786 1.36719 25.3145C0.406405 24.7493 7.81864e-05 23.679 0 22.5752V9.32129C0.000210576 6.68226 2.15589 4.52658 4.79492 4.52637H7.00781C7.14815 2.01107 9.2459 0.000203393 11.7949 0H20.8721ZM4.79492 6.86035C3.44456 6.86056 2.3342 7.97092 2.33398 9.32129V22.5752C2.33406 23.1607 2.53273 23.2936 2.5498 23.3037C2.56843 23.3145 2.78432 23.4232 3.29883 23.1396L7.87891 20.5879L7.88672 20.583C8.34548 20.3319 8.87168 20.2383 9.33398 20.2383C9.79611 20.2383 10.3217 20.332 10.7803 20.583L10.7881 20.5879L15.3682 23.1396C15.8835 23.4236 16.0993 23.3142 16.1172 23.3037C16.1336 23.294 16.3339 23.1619 16.334 22.5752V9.32129C16.3339 8.73056 16.1208 8.18579 15.7686 7.75977C15.6677 7.63783 15.5556 7.52558 15.4336 7.4248C15.0683 7.12307 14.6159 6.92381 14.1221 6.87305L13.8721 6.86035H4.79492ZM11.7949 2.33398C10.5352 2.33418 9.4852 3.3003 9.34961 4.52637H13.8721C14.5883 4.5264 15.2683 4.68654 15.8799 4.9707C15.9258 4.99201 15.9715 5.01343 16.0166 5.03613C16.3763 5.21732 16.7095 5.44308 17.0107 5.70508C17.0659 5.75303 17.1199 5.80216 17.1729 5.85254C17.5909 6.25069 17.9387 6.72197 18.1924 7.24707C18.4962 7.87565 18.667 8.57996 18.667 9.32227V16.5459L22.374 18.6162C22.8853 18.8964 23.0992 18.7879 23.1172 18.7773C23.1332 18.7679 23.3339 18.636 23.334 18.0488V4.79492C23.3338 3.4445 22.2225 2.33411 20.8721 2.33398H11.7949Z"/>
</svg>
