<svg width="20" height="20" viewBox="0 0 20 20" xmlns="http://www.w3.org/2000/svg">
<path d="M14.0246 0C15.548 0 16.8917 0.538942 17.8566 1.55371C18.8213 2.56848 19.3329 3.98107 19.333 5.58301V11.083C19.333 12.6852 18.8215 14.0984 17.8566 15.1133C17.0982 15.9109 16.1051 16.412 14.9754 16.5908V17.6191C14.9754 19.1561 13.35 20.0547 12.1471 19.2119V19.2129L8.50909 16.667H5.30843C3.78532 16.6668 2.4421 16.1279 1.4773 15.1133C0.512445 14.0984 9.7576e-06 12.6852 0 11.083V5.58301C6.93549e-05 3.98099 0.51253 2.56849 1.4773 1.55371C2.44212 0.538988 3.78524 0.000148197 5.30843 0H14.0246ZM5.30843 2C4.21743 2.00015 3.38203 2.37858 2.82182 2.96777C2.26165 3.55702 1.90171 4.43554 1.90164 5.58301V11.083C1.90165 12.2306 2.26158 13.1099 2.82182 13.6992C3.38203 14.2883 4.21753 14.6668 5.30843 14.667H8.79507L8.93435 14.6777C9.07215 14.6992 9.2046 14.7522 9.32155 14.834L13.0738 17.459V15.667C13.0738 15.1148 13.4996 14.6672 14.0246 14.667C15.1158 14.667 15.9518 14.2884 16.5121 13.6992C17.0723 13.1099 17.4314 12.2306 17.4314 11.083V5.58301C17.4313 4.43563 17.0722 3.55702 16.5121 2.96777C15.9518 2.37855 15.1158 2 14.0246 2H5.30843ZM12.8147 7.40234C13.2942 7.45353 13.669 7.87968 13.669 8.39746C13.669 8.91524 13.2942 9.34139 12.8147 9.39258L12.7181 9.39746H6.61673C6.09161 9.39746 5.66592 8.94975 5.66592 8.39746C5.66592 7.84518 6.09161 7.39746 6.61673 7.39746H12.7181L12.8147 7.40234Z" />
</svg>
