<svg width="21" height="21" viewBox="0 0 21 21" xmlns="http://www.w3.org/2000/svg">
<path d="M1 0C1.55217 0 1.99982 0.44787 2 1V16.583C2 17.5523 2.78076 18.3328 3.75 18.333H19.333C19.8851 18.333 20.3327 18.781 20.333 19.333C20.333 19.8853 19.8853 20.333 19.333 20.333H3.75C1.67619 20.3328 0 18.6569 0 16.583V1C0.000181291 0.447971 0.447967 0.000164805 1 0ZM17.6572 4.93359C18.0165 4.51418 18.6479 4.46499 19.0674 4.82422C19.4868 5.18351 19.5351 5.81494 19.1758 6.23438L14.959 11.1572L14.957 11.1602C13.8816 12.405 11.9702 12.478 10.8066 11.3145L9.93652 10.4434L9.93164 10.4395C9.59857 10.1024 9.03717 10.1169 8.71387 10.4912L4.50977 15.4014C4.15048 15.8205 3.51897 15.8689 3.09961 15.5098C2.68052 15.1507 2.63168 14.52 2.99023 14.1006L7.19824 9.18652L7.2002 9.18359C8.26891 7.94613 10.1799 7.84926 11.3506 9.0293L12.2217 9.90039C12.5612 10.2396 13.1254 10.2203 13.4434 9.85254L17.6572 4.93359Z"/>
</svg>
