<svg width="24" height="20" viewBox="0 0 24 20" xmlns="http://www.w3.org/2000/svg">
<path d="M12.2148 17.5C12.8591 17.5001 13.3818 18.0227 13.3818 18.667C13.3817 19.3111 12.859 19.8339 12.2148 19.834H1.16699C0.522761 19.834 0.000163992 19.3112 0 18.667C0 18.0227 0.52266 17.5 1.16699 17.5H12.2148ZM22.167 11.666C22.8111 11.6661 23.3338 12.1889 23.334 12.833C23.334 13.4773 22.8112 13.9999 22.167 14H1.16699C0.52266 14 0 13.4773 0 12.833C0.000187709 12.1888 0.522776 11.666 1.16699 11.666H22.167ZM12.2148 5.83301C12.8591 5.8331 13.3818 6.35573 13.3818 7C13.3818 7.64428 12.8591 8.1669 12.2148 8.16699H1.16699C0.52266 8.16699 0 7.64433 0 7C1.13474e-05 6.35568 0.522667 5.83301 1.16699 5.83301H12.2148ZM22.167 0C22.8112 8.79448e-05 23.334 0.522714 23.334 1.16699C23.3338 1.81113 22.8111 2.3339 22.167 2.33398H1.16699C0.522762 2.33398 0.000164895 1.81118 0 1.16699C0 0.52266 0.52266 0 1.16699 0H22.167Z"/>
</svg>
