<svg width="25" height="28" viewBox="0 0 25 28" xmlns="http://www.w3.org/2000/svg">
<path d="M23.75 24.7995C24.4402 24.7995 24.9998 25.3593 25 26.0495C25 26.7398 24.4404 27.2995 23.75 27.2995H1.25C0.559644 27.2995 0 26.7398 0 26.0495C0.000229814 25.3593 0.559786 24.7995 1.25 24.7995H23.75ZM16.8574 0.0357971C18.4392 -0.166252 20.0035 0.48975 21.5439 1.93912L21.5469 1.94107C23.092 3.40233 23.8408 4.9315 23.7295 6.52603C23.6226 8.05413 22.7389 9.32177 21.7832 10.3317L21.7842 10.3327L20.2129 11.9948C20.1351 12.1107 20.0391 12.212 19.9287 12.2956L11.5215 21.195L11.5205 21.194C11.2006 21.5396 10.7829 21.8243 10.3984 22.0299C10.0054 22.2401 9.54105 22.4259 9.09375 22.5055L9.08594 22.5065L5.06152 23.193L5.0625 23.194C4.00331 23.3766 2.96429 23.1137 2.2168 22.4049C1.47052 21.6972 1.15232 20.6747 1.27051 19.611V19.6081L1.7334 15.5573C1.73427 15.5497 1.73533 15.5414 1.73633 15.5338C1.79584 15.0885 1.95806 14.6191 2.14355 14.2213C2.32831 13.8252 2.58618 13.3919 2.90137 13.0563L2.9043 13.0534L13.167 2.19107V2.19009C14.1237 1.17961 15.341 0.229707 16.8574 0.0357971ZM4.72266 14.7672L4.72363 14.7682C4.65153 14.8451 4.5273 15.0248 4.40918 15.278C4.29195 15.5294 4.22952 15.7481 4.21387 15.8649L3.75488 19.8913C3.71182 20.2871 3.83631 20.4952 3.93652 20.5905C4.03587 20.6847 4.24704 20.7975 4.6377 20.7301H4.63965L8.65625 20.0436C8.77125 20.0231 8.98212 19.9519 9.21973 19.8249C9.46025 19.6962 9.6238 19.5668 9.68945 19.4948L9.7041 19.4782L16.7646 12.0045C14.5448 11.1609 12.7475 9.46227 11.7852 7.29068L4.72266 14.7672ZM17.1748 2.51627C16.5166 2.60044 15.8014 3.04486 14.9834 3.90884L14.9824 3.90787L13.7158 5.24771C14.3189 7.64833 16.2589 9.48303 18.6924 9.96353L19.9668 8.61588L19.9678 8.6149C20.786 7.75046 21.1901 7.0126 21.2363 6.35123C21.2778 5.75567 21.0461 4.90916 19.8311 3.75943C18.6224 2.62232 17.7677 2.44072 17.1748 2.51627Z"/>
</svg>
