<svg width="39" height="39" viewBox="0 0 39 39" xmlns="http://www.w3.org/2000/svg">
<path d="M15.5996 13.2566C15.0545 13.601 14.5409 14.0154 14.0752 14.5027C12.5494 16.0997 11.9229 17.7657 11.6826 20.2576C11.4729 22.4326 11.5713 24.834 11.625 28.1277C14.7994 28.1859 17.3294 28.2881 19.6699 28.073C22.4939 27.8133 24.3175 27.1192 25.7314 25.6394C26.109 25.2442 26.4375 24.8197 26.7188 24.3748H30.1279C29.6189 25.5865 28.8857 26.7283 27.9238 27.7351L27.7236 27.9392C23.4916 32.1324 17.1826 31.1296 8.62012 31.1296C8.6201 21.8937 7.65072 16.8375 11.8828 12.408C12.9682 11.272 14.238 10.4183 15.5996 9.84644V13.2566ZM18.9727 5.47632C19.9863 5.47632 20.8085 6.29863 20.8086 7.31226V9.01636H20.8096V12.0623H20.8086V19.2009H32.1748C33.1883 19.2012 34.0096 20.0234 34.0098 21.0369C34.0098 22.0505 33.1883 22.8726 32.1748 22.8728H30.6367L30.6357 22.8748H27.4609L27.4619 22.8728H17.1367V15.6003H17.1377V8.44995H17.1367V7.31226C17.1369 6.29885 17.9593 5.47667 18.9727 5.47632ZM22.3379 9.24976C24.24 9.67533 26.0544 10.606 27.5664 12.0505C29.193 13.6047 30.2412 15.5358 30.71 17.5759H27.5674C27.1693 16.3477 26.4706 15.1974 25.4717 14.2429C24.5508 13.3632 23.4756 12.7456 22.3379 12.3865V9.24976Z"/>
</svg>
