<svg width="19" height="23" viewBox="0 0 19 23" xmlns="http://www.w3.org/2000/svg">
<path fill-rule="evenodd" clip-rule="evenodd" d="M9.04581 0C10.1368 3.23615e-06 11.092 0.584672 11.6132 1.46094C14.2035 2.48955 16.0458 5.02282 16.0458 7.96973V10.8594C16.0458 11.0442 16.089 11.3358 16.1776 11.6592C16.2638 11.9732 16.3724 12.2431 16.4648 12.4072L17.6122 14.3135L17.6132 14.3154C18.6003 15.9607 17.8122 18.1034 15.9921 18.707L15.9931 18.708C14.9427 19.0589 13.8729 19.327 12.7929 19.5146C12.2243 21.0328 10.7577 22.1191 9.04581 22.1191C7.9493 22.119 6.93788 21.6655 6.21866 20.9463C5.82011 20.5476 5.50307 20.0594 5.29971 19.5166C4.21615 19.3288 3.1425 19.0601 2.08878 18.708L2.08487 18.707C1.1788 18.4002 0.485956 17.7599 0.174713 16.9199C-0.136854 16.0785 -0.027409 15.1393 0.468658 14.3145L0.469635 14.3135L1.61905 12.4043C1.71321 12.2452 1.82549 11.9749 1.91397 11.6562C2.00316 11.3349 2.04578 11.0439 2.04581 10.8594V7.96973C2.04581 5.01305 3.88535 2.48188 6.48038 1.45703C7.00182 0.58272 7.95639 0.000139383 9.04581 0ZM10.1015 19.8115C9.39771 19.8456 8.69293 19.8463 7.98917 19.8125C8.29808 20.0052 8.66283 20.1191 9.04581 20.1191C9.43274 20.1191 9.79406 20.0048 10.1015 19.8115ZM9.81241 3.05273C8.9926 2.95026 8.2214 3.00874 7.5087 3.21094C5.50119 3.86075 4.04581 5.74819 4.04581 7.96973V10.8594C4.04579 11.2848 3.959 11.7653 3.84073 12.1914C3.72238 12.6176 3.55011 13.0705 3.33487 13.4316L3.33292 13.4355L2.18253 15.3457C1.96942 15.7002 1.96905 16.0064 2.04971 16.2246C2.131 16.4441 2.33318 16.6793 2.72647 16.8125H2.72549C6.82892 18.1828 11.256 18.1824 15.3593 16.8115L15.3622 16.8105C15.9595 16.613 16.2302 15.8993 15.8993 15.3457L14.7489 13.4355L14.744 13.4277L14.7401 13.4199C14.534 13.0627 14.3655 12.6126 14.2489 12.1875C14.1327 11.7636 14.0458 11.2844 14.0458 10.8594V7.96973C14.0458 5.74303 12.5671 3.84119 10.5439 3.2002C10.3019 3.13319 10.0599 3.08229 9.81631 3.05273H9.81241Z"/>
</svg>
