<svg width="20" height="21" viewBox="0 0 20 21" xmlns="http://www.w3.org/2000/svg">
<path d="M7.25879 10.2559C9.07256 10.2559 10.9377 10.7107 12.3926 11.6816H12.3936C13.7114 12.5584 14.5029 13.8154 14.5029 15.2012C14.5027 16.5862 13.7116 17.8445 12.3955 18.7256C10.9363 19.7019 9.06761 20.1601 7.25195 20.1602C5.43677 20.1601 3.56848 19.7023 2.10938 18.7266C0.792021 17.8499 0.000186514 16.5934 0 15.208C0 13.8229 0.791293 12.5638 2.10742 11.6826L2.11133 11.6807C3.57418 10.7108 5.44388 10.2559 7.25879 10.2559ZM14.7139 11.7803C14.8354 11.2418 15.3707 10.9033 15.9092 11.0244C16.6671 11.1952 17.4226 11.5024 18.0654 11.9932L18.0645 11.9941C18.9923 12.6927 19.531 13.6814 19.5312 14.7451C19.5312 15.8115 18.9905 16.804 18.0586 17.5029L18.0576 17.502C17.4102 17.9965 16.6473 18.3158 15.8662 18.4785C15.3256 18.5911 14.7963 18.2446 14.6836 17.7041C14.5712 17.1636 14.9176 16.6342 15.458 16.5215C15.9931 16.41 16.4725 16.1988 16.8496 15.9092L16.8584 15.9023C17.3564 15.5288 17.5312 15.0996 17.5312 14.7451C17.531 14.3908 17.3562 13.9612 16.8584 13.5879L16.8516 13.583C16.4863 13.3042 16.013 13.098 15.4697 12.9756C14.9311 12.8541 14.5926 12.3189 14.7139 11.7803ZM7.25879 12.2559C5.74645 12.2559 4.28383 12.6402 3.2168 13.3477L3.21582 13.3467C2.31682 13.9499 2 14.6438 2 15.208C2.00017 15.7371 2.27899 16.3778 3.05566 16.9492L3.21777 17.0625L3.21973 17.0635C4.28114 17.7737 5.74039 18.1601 7.25195 18.1602C8.76331 18.1601 10.2218 17.7735 11.2832 17.0635C12.1849 16.4598 12.5027 15.7661 12.5029 15.2012C12.5029 14.6369 12.1862 13.9456 11.2861 13.3467L11.2842 13.3457C10.2278 12.6402 8.77152 12.2559 7.25879 12.2559ZM13.8936 1.83398C16.2257 1.83425 18.1014 3.72271 18.1016 6.04199C18.1014 8.31479 16.2981 10.1656 14.0498 10.25C13.9962 10.252 13.9419 10.2498 13.8887 10.2432C13.8952 10.244 13.8981 10.2441 13.8975 10.2441C13.8951 10.2441 13.8899 10.2436 13.8848 10.2441C13.3361 10.3051 12.8415 9.90992 12.7803 9.36133C12.7193 8.81242 13.1152 8.31783 13.6641 8.25684C13.7686 8.24525 13.8786 8.24394 13.9893 8.24902C15.1621 8.19749 16.1014 7.22886 16.1016 6.04199C16.1014 4.82356 15.1174 3.83425 13.8936 3.83398C13.3414 3.83397 12.8937 3.38611 12.8936 2.83398C12.8936 2.28171 13.3413 1.834 13.8936 1.83398ZM7.10059 0C9.89845 0.000169065 12.1697 2.27245 12.1699 5.07031V5.07422C12.1585 7.80805 10.0029 10.0384 7.28027 10.1299C7.23605 10.1313 7.19149 10.1304 7.14746 10.126C7.12474 10.1237 7.07865 10.123 7.03516 10.127C6.99407 10.1307 6.95236 10.1313 6.91113 10.1299C4.18944 10.0382 2.03044 7.8079 2.03027 5.07031C2.03045 2.27391 4.29208 0.00016467 7.10059 0ZM7.10059 2C5.39959 2.00016 4.03045 3.37554 4.03027 5.07031C4.03044 6.72413 5.32423 8.06235 6.9541 8.12988C7.04608 8.12503 7.1413 8.1251 7.23438 8.12988C8.86369 8.06405 10.1607 6.72725 10.1699 5.07031L10.166 4.91211C10.0835 3.29199 8.74092 2.00016 7.10059 2Z"/>
</svg>
