<svg width="20" height="20" viewBox="0 0 20 20" xmlns="http://www.w3.org/2000/svg">
<path fill-rule="evenodd" clip-rule="evenodd" d="M0 3.93333C0 1.76101 1.76101 0 3.93333 0H4.91667C7.08899 0 8.85 1.76101 8.85 3.93333V4.91667C8.85 7.08899 7.08899 8.85 4.91667 8.85H3.93333C1.76101 8.85 0 7.08899 0 4.91667V3.93333ZM3.93333 1.96667C2.84717 1.96667 1.96667 2.84717 1.96667 3.93333V4.91667C1.96667 6.00283 2.84717 6.88333 3.93333 6.88333H4.91667C6.00283 6.88333 6.88333 6.00283 6.88333 4.91667V3.93333C6.88333 2.84717 6.00283 1.96667 4.91667 1.96667H3.93333ZM10.8167 3.93333C10.8167 1.76101 12.5777 0 14.75 0H15.7333C17.9057 0 19.6667 1.76101 19.6667 3.93333V4.91667C19.6667 7.08899 17.9057 8.85 15.7333 8.85H14.75C12.5777 8.85 10.8167 7.08899 10.8167 4.91667V3.93333ZM14.75 1.96667C13.6638 1.96667 12.7833 2.84717 12.7833 3.93333V4.91667C12.7833 6.00283 13.6638 6.88333 14.75 6.88333H15.7333C16.8195 6.88333 17.7 6.00283 17.7 4.91667V3.93333C17.7 2.84717 16.8195 1.96667 15.7333 1.96667H14.75ZM0 14.75C0 12.5777 1.76101 10.8167 3.93333 10.8167H4.91667C7.08899 10.8167 8.85 12.5777 8.85 14.75V15.7333C8.85 17.9057 7.08899 19.6667 4.91667 19.6667H3.93333C1.76101 19.6667 0 17.9057 0 15.7333V14.75ZM3.93333 12.7833C2.84717 12.7833 1.96667 13.6638 1.96667 14.75V15.7333C1.96667 16.8195 2.84717 17.7 3.93333 17.7H4.91667C6.00283 17.7 6.88333 16.8195 6.88333 15.7333V14.75C6.88333 13.6638 6.00283 12.7833 4.91667 12.7833H3.93333ZM10.8167 14.75C10.8167 12.5777 12.5777 10.8167 14.75 10.8167H15.7333C17.9057 10.8167 19.6667 12.5777 19.6667 14.75V15.7333C19.6667 17.9057 17.9057 19.6667 15.7333 19.6667H14.75C12.5777 19.6667 10.8167 17.9057 10.8167 15.7333V14.75ZM14.75 12.7833C13.6638 12.7833 12.7833 13.6638 12.7833 14.75V15.7333C12.7833 16.8195 13.6638 17.7 14.75 17.7H15.7333C16.8195 17.7 17.7 16.8195 17.7 15.7333V14.75C17.7 13.6638 16.8195 12.7833 15.7333 12.7833H14.75Z"/>
</svg>
