<svg width="21" height="21" viewBox="0 0 21 21" xmlns="http://www.w3.org/2000/svg">
<path d="M10.417 18.2598C11.107 18.2599 11.6667 18.8198 11.667 19.5098V19.583L11.6602 19.7109C11.5962 20.3412 11.0641 20.8328 10.417 20.833C9.72679 20.8328 9.16699 20.2733 9.16699 19.583V19.5098C9.1673 18.8198 9.72698 18.2599 10.417 18.2598ZM3.10742 15.959C3.59547 15.471 4.38684 15.4712 4.875 15.959C5.36281 16.4471 5.36299 17.2385 4.875 17.7266L4.75586 17.8457C4.2677 18.3339 3.47546 18.3339 2.9873 17.8457C2.49978 17.3576 2.49973 16.5661 2.9873 16.0781L3.10742 15.959ZM15.959 15.959C16.447 15.4709 17.2384 15.4712 17.7266 15.959L17.8457 16.0781C18.3336 16.5663 18.3338 17.3576 17.8457 17.8457C17.3576 18.3338 16.5663 18.3336 16.0781 17.8457L15.959 17.7266C15.4712 17.2384 15.4709 16.447 15.959 15.959ZM10.417 3.45898C14.2597 3.45917 17.3758 6.57427 17.376 10.417C17.3758 14.2597 14.2597 17.3758 10.417 17.376C6.57427 17.3758 3.45916 14.2597 3.45898 10.417C3.45916 6.57427 6.57427 3.45916 10.417 3.45898ZM10.417 5.45898C7.67884 5.45916 5.45916 7.67884 5.45898 10.417C5.45916 13.1551 7.67884 15.3758 10.417 15.376C13.1551 15.3758 15.3758 13.1551 15.376 10.417C15.3758 7.67884 13.1551 5.45917 10.417 5.45898ZM1.45117 9.17285C2.08138 9.23686 2.57308 9.76993 2.57324 10.417C2.57308 11.064 2.08137 11.5961 1.45117 11.6602L1.32324 11.667H1.25C0.559907 11.6668 0.000175756 11.1071 0 10.417C0.00017719 9.7269 0.559908 9.16717 1.25 9.16699H1.32324L1.45117 9.17285ZM19.7109 9.17285C20.3413 9.23675 20.8328 9.76985 20.833 10.417C20.8328 11.0641 20.3412 11.5962 19.7109 11.6602L19.583 11.667H19.5098C18.8198 11.6667 18.2599 11.107 18.2598 10.417C18.2599 9.72698 18.8198 9.1673 19.5098 9.16699H19.583L19.7109 9.17285ZM16.0781 2.9873C16.5661 2.49972 17.3576 2.49978 17.8457 2.9873C18.3339 3.47546 18.3339 4.2677 17.8457 4.75586L17.7266 4.875C17.2385 5.36299 16.4471 5.36281 15.959 4.875C15.4712 4.38684 15.471 3.59547 15.959 3.10742L16.0781 2.9873ZM2.9873 2.9873C3.44481 2.5298 4.1692 2.50229 4.66016 2.90234L4.75586 2.9873L4.875 3.10742C5.36278 3.59561 5.36303 4.38697 4.875 4.875C4.41747 5.33253 3.69311 5.36107 3.20215 4.96094L3.10742 4.875L2.9873 4.75586C2.49957 4.26767 2.49929 3.47532 2.9873 2.9873ZM10.417 0C11.1071 0.000175756 11.6668 0.559903 11.667 1.25V1.32324L11.6602 1.45117C11.5961 2.08137 11.064 2.57308 10.417 2.57324C9.72679 2.57306 9.16699 2.01349 9.16699 1.32324V1.25C9.16717 0.559907 9.7269 0.000181312 10.417 0Z"/>
</svg>
