<svg width="26" height="26" viewBox="0 0 26 26" xmlns="http://www.w3.org/2000/svg">
<path d="M12.834 0C19.9181 0.000264431 25.667 5.74982 25.667 12.834C25.6666 19.9178 19.9179 25.6667 12.834 25.667C5.74988 25.667 0.000363495 19.918 0 12.834C0 5.74965 5.74965 0 12.834 0ZM12.834 2.33398C7.03832 2.33398 2.33398 7.03832 2.33398 12.834C2.33435 18.6293 7.03854 23.334 12.834 23.334C18.6292 23.3337 23.3336 18.6292 23.334 12.834C23.334 7.03848 18.6294 2.33425 12.834 2.33398ZM12.4014 6.42773C13.0456 6.42773 13.5682 6.95052 13.5684 7.59473V12.3779C13.5684 12.4942 13.6164 12.705 13.75 12.9395C13.8503 13.1152 13.9637 13.2427 14.0557 13.3203L14.1396 13.3809L14.1426 13.3828L17.7588 15.541C18.312 15.8712 18.4931 16.5874 18.1631 17.1406C17.8329 17.6939 17.1168 17.8751 16.5635 17.5449L12.9502 15.3887L12.7568 15.2627C12.318 14.952 11.9689 14.5249 11.7236 14.0947C11.4434 13.6031 11.2344 12.9964 11.2344 12.3779V7.59473C11.2345 6.95062 11.7573 6.42791 12.4014 6.42773Z"/>
</svg>
