<svg width="22" height="22" viewBox="0 0 22 22" xmlns="http://www.w3.org/2000/svg">
<path d="M14 0C16.5986 0 18.6777 0.513677 20.082 1.91797C21.4863 3.32226 22 5.40137 22 8V14C22 16.5986 21.4863 18.6777 20.082 20.082C18.6777 21.4863 16.5986 22 14 22H8C5.40137 22 3.32226 21.4863 1.91797 20.082C0.513677 18.6777 0 16.5986 0 14V8C0 5.40137 0.513677 3.32226 1.91797 1.91797C3.32226 0.513677 5.40137 0 8 0H14ZM8 2C5.59863 2 4.17774 2.48632 3.33203 3.33203C2.48632 4.17774 2 5.59863 2 8V14C2 16.4014 2.48632 17.8223 3.33203 18.668C4.17774 19.5137 5.59863 20 8 20H14C16.4014 20 17.8223 19.5137 18.668 18.668C19.5137 17.8223 20 16.4014 20 14V8C20 5.59863 19.5137 4.17774 18.668 3.33203C17.8223 2.48632 16.4014 2 14 2H8ZM7.67285 12.6729C8.06334 12.2824 8.69638 12.2824 9.08691 12.6729C9.47744 13.0634 9.47743 13.6964 9.08691 14.0869L6.83691 16.3369C6.44639 16.7274 5.81338 16.7274 5.42285 16.3369L4.67285 15.5869C4.28245 15.1964 4.28237 14.5633 4.67285 14.1729C5.06334 13.7824 5.69638 13.7824 6.08691 14.1729L6.12988 14.2158L7.67285 12.6729ZM16.6201 13.8799C17.1723 13.8799 17.6201 14.3277 17.6201 14.8799C17.6201 15.4321 17.1723 15.8798 16.6201 15.8799H11.3701C10.8178 15.8799 10.3701 15.4322 10.3701 14.8799C10.3702 14.3277 10.8179 13.8799 11.3701 13.8799H16.6201ZM7.67285 5.67285C8.06334 5.28237 8.69638 5.28245 9.08691 5.67285C9.47744 6.06337 9.47743 6.69639 9.08691 7.08691L6.83691 9.33691C6.44639 9.72744 5.81338 9.72744 5.42285 9.33691L4.67285 8.58691C4.28245 8.19638 4.28237 7.56334 4.67285 7.17285C5.06334 6.78237 5.69638 6.78245 6.08691 7.17285L6.12988 7.21582L7.67285 5.67285ZM16.6201 6.87988C17.1723 6.87994 17.6201 7.32769 17.6201 7.87988C17.6201 8.43213 17.1723 8.87982 16.6201 8.87988H11.3701C10.8178 8.87988 10.3701 8.43217 10.3701 7.87988C10.3702 7.32765 10.8179 6.87988 11.3701 6.87988H16.6201Z"/>
</svg>
