<svg width="20" height="22" viewBox="0 0 20 22" xmlns="http://www.w3.org/2000/svg">
<path d="M16.915 7.1416C17.4659 7.17732 17.884 7.65322 17.8486 8.2041L17.1982 18.2744V18.2793C17.1718 18.6566 17.1421 19.0949 17.0596 19.5049C16.9749 19.9253 16.8224 20.388 16.5039 20.8027C15.8307 21.6792 14.7057 22 13.21 22H6.79004C5.29446 22 4.17025 21.6792 3.49707 20.8027C3.17853 20.3879 3.02608 19.9253 2.94141 19.5049C2.85891 19.0949 2.82917 18.6566 2.80273 18.2793V18.2744L2.15234 8.2041C2.11697 7.65313 2.53493 7.17718 3.08594 7.1416C3.6369 7.1061 4.11267 7.52429 4.14844 8.0752L4.79785 18.1396C4.82639 18.5469 4.85001 18.8503 4.90234 19.1104C4.95254 19.3596 5.0168 19.4975 5.08301 19.584C5.17977 19.71 5.49609 19.9999 6.79004 20H13.21C14.5041 20 14.8202 19.71 14.917 19.584C14.9833 19.4976 15.0484 19.3599 15.0986 19.1104C15.1507 18.8516 15.1738 18.5498 15.2021 18.1455L15.8525 8.0752C15.8883 7.52426 16.364 7.10604 16.915 7.1416ZM11.6602 14.5C12.2124 14.5 12.6602 14.9477 12.6602 15.5C12.6602 16.0523 12.2124 16.5 11.6602 16.5H8.33008C7.77797 16.4998 7.33008 16.0522 7.33008 15.5C7.33008 14.9478 7.77797 14.5002 8.33008 14.5H11.6602ZM12.5 10.5C13.0523 10.5 13.5 10.9477 13.5 11.5C13.5 12.0523 13.0523 12.5 12.5 12.5H7.5C6.9479 12.4998 6.5 12.0522 6.5 11.5C6.5 10.9478 6.9479 10.5002 7.5 10.5H12.5ZM11.3096 0C12.2747 0 13.0871 0.211882 13.6279 0.834961C14.1081 1.3885 14.2022 2.11218 14.2656 2.50293L14.457 3.62988C16.0067 3.71379 17.5549 3.83237 19.0986 3.98535C19.6482 4.03982 20.0496 4.52951 19.9951 5.0791C19.9404 5.62843 19.4508 6.03003 18.9014 5.97559C15.6035 5.64878 12.2864 5.48048 8.98047 5.48047C7.03438 5.48048 5.08723 5.57877 3.14062 5.77539H3.1377L1.09766 5.97559C0.548353 6.0292 0.0590083 5.62737 0.00488281 5.07812C-0.0489871 4.52865 0.352965 4.0395 0.902344 3.98535L2.93945 3.78613C3.80963 3.69824 4.68038 3.62914 5.55078 3.5791L5.7334 2.49414H5.73438C5.80087 2.09934 5.89449 1.36439 6.38086 0.8125C6.92579 0.19457 7.74039 5.35465e-05 8.69043 0H11.3096ZM8.69043 2C8.33083 2.00003 8.11846 2.03882 8 2.07715C7.94466 2.0951 7.91418 2.11146 7.90039 2.12012C7.88808 2.12791 7.8827 2.13268 7.88086 2.13477C7.87674 2.13951 7.85009 2.17275 7.81543 2.28809C7.77679 2.41681 7.7485 2.57416 7.70605 2.82617L7.59277 3.49609C8.05535 3.48531 8.51792 3.48047 8.98047 3.48047C10.1236 3.48047 11.2681 3.50101 12.4121 3.54004L12.2939 2.83691L12.293 2.83105C12.2535 2.58888 12.2264 2.4346 12.1885 2.30762C12.1538 2.19169 12.1252 2.15477 12.1172 2.14551C12.1149 2.14264 12.0914 2.11275 11.9912 2.0791C11.8744 2.03998 11.6644 2 11.3096 2H8.69043Z"/>
</svg>
