<svg width="12" height="12" viewBox="0 0 12 12" fill="none" xmlns="http://www.w3.org/2000/svg">
<g clip-path="url(#clip0_259_1065)">
<path d="M6 0.5C9.02614 0.5 11.5 2.97386 11.5 6C11.5 9.02614 9.02614 11.5 6 11.5C2.97386 11.5 0.5 9.02614 0.5 6C0.5 2.97386 2.97386 0.5 6 0.5ZM6 1.5C3.52614 1.5 1.5 3.52614 1.5 6C1.5 8.47386 3.52614 10.5 6 10.5C8.47386 10.5 10.5 8.47386 10.5 6C10.5 3.52614 8.47386 1.5 6 1.5ZM6.10254 7.50977C6.33032 7.55644 6.50195 7.75842 6.50195 8C6.50195 8.24158 6.33032 8.44356 6.10254 8.49023L6.00195 8.5H5.99707C5.72104 8.49987 5.49707 8.27606 5.49707 8C5.49707 7.72394 5.72104 7.50013 5.99707 7.5H6.00195L6.10254 7.50977ZM6 3.5C6.27614 3.5 6.5 3.72386 6.5 4V6.5C6.5 6.77614 6.27614 7 6 7C5.72386 7 5.5 6.77614 5.5 6.5V4C5.5 3.72386 5.72386 3.5 6 3.5Z" fill="#141414"/>
</g>
<defs>
<clipPath id="clip0_259_1065">
<rect width="12" height="12" fill="white"/>
</clipPath>
</defs>
</svg>
